<svg width="128" height="128" viewBox="0 0 128 128" fill="none" xmlns="http://www.w3.org/2000/svg">
  <defs>
    <linearGradient id="bg" x1="14" y1="14" x2="114" y2="114" gradientUnits="userSpaceOnUse">
      <stop stop-color="#8C5BFF"/>
      <stop offset="0.58" stop-color="#5E74FF"/>
      <stop offset="1" stop-color="#2ED6FF"/>
    </linearGradient>
  </defs>

  <rect x="8" y="8" width="112" height="112" rx="30" fill="#0A0C17"/>
  <rect x="12" y="12" width="104" height="104" rx="26" fill="url(#bg)"/>

  <g fill="#16171C">
    <path d="M43 48C43 43.0294 47.0294 39 52 39H72C76.9706 39 81 43.0294 81 48V56H55C46.1634 56 39 63.1634 39 72H33C30.7909 72 29 70.2091 29 68V67C29 64.7909 30.7909 63 33 63H36.5C39.1231 54.2767 47.2113 48 56.5 48H43Z"/>
    <path d="M40 82C40 74.268 46.268 68 54 68H72.5C80.232 68 86.5 74.268 86.5 82H40Z"/>
    <path d="M82.5 35H90.5C91.6046 35 92.5 35.8954 92.5 37V41.5C92.5 42.6046 91.6046 43.5 90.5 43.5H89V74.5C89 77.5376 86.5376 80 83.5 80H82L83.7 36.4C83.7227 35.8167 83.3208 35 82.5 35Z"/>
    <path d="M92 49.5C98.6274 49.5 104 54.8726 104 61.5V66H98.5C94.9101 66 92 63.0899 92 59.5V49.5Z"/>

    <path d="M44 92C36.268 92 30 85.732 30 78H37.5C45.232 78 51.5 84.268 51.5 92H44Z"/>
    <path d="M84 92C76.268 92 70 85.732 70 78H91C98.732 78 105 84.268 105 92H84Z"/>

    <path d="M47 92C47 87.0294 51.0294 83 56 83H57C57 87.9706 52.9706 92 48 92H47Z" fill="#F6F7FB"/>
    <path d="M87 92C87 87.0294 91.0294 83 96 83H97C97 87.9706 92.9706 92 88 92H87Z" fill="#F6F7FB"/>
  </g>
</svg>
